<?xml version="1.0" encoding="UTF-8"?>
<svg version="1.1" viewBox="0 0 1248 1248" width="312" height="312" xmlns="http://www.w3.org/2000/svg">
<path transform="translate(613,250)" d="m0 0h22l20 4 24 10 18 10 21 13 17 12 18 13 13 11 9 7 14 12 12 11 10 9 7 7 8 7 19 19 7 8 13 14 7 8 28 34 14 19 12 17 12 19 8 14 7 15 6 18 7 31 1 12v12l-2 15-6 21-10 21-10 16-8 10-9 10-9 9-8 7-15 14-11 10-11 9-16 13-16 12-17 12-27 18-24 15-21 13-7 5-1 7-1 319-1 1-12-1v-245l1-70 1-2-20 10h-3v-17l5-5 19-12 23-14 19-12 36-24 17-12 16-13 14-11 14-12 10-9 12-11 27-27 9-11 8-11 8-16 4-15 2-15v-18l-3-22-4-15-8-19-13-25-9-14-10-14-12-16-18-22-9-10-9-11-15-16-58-58-11-9-10-9-17-13-18-14-11-7-15-10-15-9-14-8-24-9-10-2h-20l-17 4-15 6-17 9-21 13-22 15-17 13-16 13-11 9-13 12-8 7-51 51-7 8-9 10-9 11-9 10-11 14-10 13-12 17-12 19-13 25-9 24-4 25v25l3 19 5 13 5 10 8 11 12 14 8 8 5 6 8 7 17 17 8 7 13 11 14 11 16 13 17 12 36 24 24 15 28 17 15 10 1 3v16l-2 1-18-10-3-1 1 9v308l-3 1h-7l-2-1-1-23-1-302-9-7-26-16-19-12-27-18-18-13-16-12-16-13-10-9-8-7-12-11-15-14-5-4-7-8-10-12-13-21-7-15-5-15-3-12-1-7v-23l3-18 6-24 8-21 11-20 12-19 12-17 16-21 16-20 12-14 10-11 7-8 12-13 29-29 8-7 7-7 8-7 13-11 17-14 19-14 18-13 19-12 21-12 17-8 15-5z" fill="#FEFEFE"/>
<path transform="translate(614,4)" d="m0 0h21l10 2 12 5 22 12 19 12 19 13 18 13 13 10 16 13 10 8 15 13 20 20 11 14 14 21 8 15 17 40 19 49 22 62 14 38 14 39 17 51 14 48 6 28v3h-2l-8-19-31-62-9-17-13-23-17-28-14-21-13-18-9-12-11-15-10-14-16-21-14-19-13-17-16-21-3-4 1-2 13 13 7 8 53 53 6 8 2 1-1-7-7-26-7-25-10-27-16-36-8-17-11-19-12-16-8-10-9-10-5-6-2-1v-2h-2l-12-12-14-11-11-9-20-14-22-13-22-12-10-4-5-1h-20l-9 2-16 8-20 11-19 12-18 13-16 13-14 12-16 16-9 11-11 14-10 15-12 23-8 17-12 28-8 21-16 56-1 6h3l2-4 9-10 5-6 6-5 7-8 19-19 8-7 11-11 7-8 6-7 1 2-8 11-10 13-11 14-12 16-8 11-9 12-14 19-10 14-12 16-10 14-11 16-13 21-13 22-14 25-12 22-11 23-8 16-8 17-4 10-2 1 1-10 6-26 15-51 14-40 10-29 10-28 11-30 15-42 12-32 16-40 13-30 10-19 11-16 13-16 15-16 8-7 15-13 14-11 15-12 18-13 17-12 22-14 24-14 17-7z" fill="#FEFEFE"/>
<path transform="translate(945,701)" d="m0 0 4 1 11 8 84 48 23 13 24 14 12 8 13 11 16 16 10 13 8 13 9 19 11 33 8 33 9 44 7 34 6 37 5 37 3 19 4 36 3 30 3 38v16h-1l-7-48-2-10-2-22-2-6-2-14-6-18-4-17-8-27-4-17-5-27-7-35-10-44-5-20-9-31-6-16-8-16-9-14-11-13-12-11-17-12-23-14-21-12-24-13-23-13-22-12-22-13-17-8 2-4 3-3h2l2-4 5-5z" fill="#FEFEFE"/>
<path transform="translate(299,701)" d="m0 0 5 1 7 8 8 7-3 3-16 8-28 16-24 13-23 13-24 13-22 13-24 16-11 9-13 13-8 11-9 16-7 15-6 18-11 41-10 44-10 50-5 26-12 42-3 12-5 18-2 13-2 6-2 25-2 6-5 36-2 4v-18l2-27 3-24 1-17 3-24 7-49 5-34 6-33 5-25 11-50 7-26 8-23 9-20 10-16 11-13 13-14 11-9 13-9 26-15 25-14 24-14 28-16 24-14 14-9 3-1z" fill="#FEFEFE"/>
<path transform="translate(467,395)" d="m0 0 19 4 51 10 57 8 2 2v20l-1 1-16-1-50-8-39-7-14-2h-10l-6 4-2 4v17l-5 1-20-1-1-1-1-11 6-9 12-13 10-11z" fill="#FEFEFE"/>
<path transform="translate(774,396)" d="m0 0h7l8 7 13 13 7 8 6 7 2 4-1 11-6 2h-16l-5-1 1-5v-11l-4-7-5-2h-10l-83 14-27 4h-9v-21l4-2 61-9 49-10z" fill="#FEFEFE"/>
<path transform="translate(1120,883)" d="m0 0 1 4-14 36-17 48-9 25-13 36-11 30-14 36-11 27-15 37-12 28-10 24-4 9h-1l1-8 6-16 19-52 17-47 11-30 13-36 15-40 22-55 11-26 9-20z" fill="#FEFEFE"/>
<path transform="translate(126,883)" d="m0 0 5 5 8 16 13 31 11 28 12 30 19 51 14 39 16 43 9 26 24 64 1 7-2-2-6-13-5-13-15-35-14-34-11-27-16-41-18-50-11-30-18-52-8-21-8-20z" fill="#FEFEFE"/>
<path transform="translate(725,1195)" d="m0 0h10v29l-4 1-6-2z" fill="#FEFEFE"/>
<path transform="translate(512,1195)" d="m0 0h10l1 28-4 2-6-1-1-11z" fill="#FEFEFE"/>
<path transform="translate(258,1223)" d="m0 0 2 3-1 3z" fill="#FEFEFE"/>
<path transform="translate(989,1223)" d="m0 0 1 3-2 2z" fill="#FEFEFE"/>
<path transform="translate(1218,1222)" d="m0 0h1v6h-1z" fill="#FEFEFE"/>
<path transform="translate(765,219)" d="m0 0" fill="#FEFEFE"/>
<path transform="translate(764,218)" d="m0 0" fill="#FEFEFE"/>
</svg>
